# xmcd
#
# Track frame offsets:
#	182
#	13670
#	24892
#	39797
#	53127
#	67325
#	84452
#	97462
#	110500
#	124495
#	137780
#	151567
#	167897
#	182220
#
# Disc length: 2646 seconds
#
# Revision: 1
# Processed by: cddbd v1.5.2PL0 Copyright (c) Steve Scherf et al.
# Submitted via: EasyCDDAExtractor 8.2.1.1
#
DISCID=bd0a540e
DTITLE=SILVERWATER - Nobody Knows
DYEAR=1900
DGENRE=Country
TTITLE0=Rock My World (Little Country Girl)
TTITLE1=Somebody Had To Teach You
TTITLE2=Silver Wings
TTITLE3=Better Man
TTITLE4=Young Ones
TTITLE5=Loving You
TTITLE6=Mona Lisa
TTITLE7=Nobody Knows
TTITLE8=Writing On The Wall
TTITLE9=Paralyzed
TTITLE10=Burning Bridges
TTITLE11=Memphis
TTITLE12=No Way Jose
TTITLE13=All You Ever Do Is Bring Me Down
EXTD=
EXTT0=
EXTT1=
EXTT2=
EXTT3=
EXTT4=
EXTT5=
EXTT6=
EXTT7=
EXTT8=
EXTT9=
EXTT10=
EXTT11=
EXTT12=
EXTT13=
PLAYORDER=
